<svg width="160.000000" height="41.000000" viewBox="0 0 160 41" fill="none" xmlns="http://www.w3.org/2000/svg" xmlns:xlink="http://www.w3.org/1999/xlink">
	<desc>
			Created with Pixso.
	</desc>
	<defs/>
	<path id="Trafalgar" d="M53.8496 10.9744L59.1934 10.9744L59.1934 25.3885L62.8438 25.3885L62.8438 10.9744L68.1875 10.9744L68.1875 7.93341L53.8496 7.93341L53.8496 10.9744ZM69.1234 25.3885L72.7562 25.3885L72.7562 17.9822C72.7562 16.3709 73.9339 15.2635 75.5336 15.2635C76.0375 15.2635 76.7289 15.3514 77.0687 15.4568L77.0687 12.2401C76.7464 12.1639 76.2953 12.1111 75.9261 12.1111C74.4613 12.1111 73.2601 12.9608 72.7796 14.5838L72.6449 14.5838L72.6449 12.2986L69.1234 12.2986L69.1234 25.3885ZM82.299 25.6346C84.2385 25.6346 85.4865 24.7908 86.1252 23.5721L86.2307 23.5721L86.2307 25.3885L89.676 25.3885L89.676 16.5584C89.676 13.4412 87.0334 12.1287 84.1154 12.1287C80.9807 12.1287 78.9182 13.6287 78.4142 16.0135L81.7717 16.2889C82.0178 15.4158 82.7971 14.7772 84.0978 14.7772C85.3342 14.7772 86.0432 15.3983 86.0432 16.4764L86.0432 16.5233C86.0432 17.367 85.1467 17.4783 82.8732 17.701C80.2834 17.9412 77.9572 18.8084 77.9572 21.7322C77.9572 24.3221 79.8029 25.6346 82.299 25.6346ZM83.342 23.1326C82.2228 23.1326 81.426 22.6111 81.426 21.6151C81.426 20.5897 82.2697 20.0858 83.5471 19.91C84.3381 19.7986 85.633 19.6111 86.0666 19.3182L86.0666 20.7068C86.0666 22.0838 84.9357 23.1326 83.342 23.1326ZM99.5357 12.2986L96.9341 12.2986L96.9341 11.4197C96.9341 10.535 97.2915 10.0135 98.358 10.0135C98.7915 10.0135 99.2369 10.1072 99.524 10.201L100.163 7.47638C99.7115 7.33575 98.7154 7.1131 97.6021 7.1131C95.1353 7.1131 93.3013 8.50763 93.3013 11.3494L93.3013 12.2986L91.4556 12.2986L91.4556 15.0233L93.3013 15.0233L93.3013 25.3885L96.9341 25.3885L96.9341 15.0233L99.5357 15.0233L99.5357 12.2986ZM105.004 25.6346C106.943 25.6346 108.191 24.7908 108.83 23.5721L108.935 23.5721L108.935 25.3885L112.381 25.3885L112.381 16.5584C112.381 13.4412 109.738 12.1287 106.82 12.1287C103.685 12.1287 101.623 13.6287 101.119 16.0135L104.476 16.2889C104.722 15.4158 105.502 14.7772 106.802 14.7772C108.039 14.7772 108.748 15.3983 108.748 16.4764L108.748 16.5233C108.748 17.367 107.851 17.4783 105.578 17.701C102.988 17.9412 100.662 18.8084 100.662 21.7322C100.662 24.3221 102.507 25.6346 105.004 25.6346ZM106.047 23.1326C104.927 23.1326 104.131 22.6111 104.131 21.6151C104.131 20.5897 104.974 20.0858 106.252 19.91C107.043 19.7986 108.338 19.6111 108.771 19.3182L108.771 20.7068C108.771 22.0838 107.64 23.1326 106.047 23.1326ZM118.83 7.93341L115.197 7.93341L115.197 25.3885L118.83 25.3885L118.83 7.93341ZM127.626 30.5682C131.364 30.5682 134.025 28.8631 134.025 25.5174L134.025 12.2986L130.421 12.2986L130.421 14.4959L130.286 14.4959C129.8 13.4295 128.733 12.1287 126.542 12.1287C123.671 12.1287 121.239 14.3611 121.239 18.8201C121.239 23.1736 123.601 25.201 126.554 25.201C128.64 25.201 129.806 24.1522 130.286 23.0682L130.439 23.0682L130.439 25.4647C130.439 27.2635 129.284 27.9608 127.708 27.9608C126.108 27.9608 125.3 27.2635 125.001 26.4725L121.644 26.9236C122.077 28.9861 124.099 30.5682 127.626 30.5682ZM127.702 22.4764C125.921 22.4764 124.948 21.0584 124.948 18.8026C124.948 16.576 125.903 15.0174 127.702 15.0174C129.466 15.0174 130.456 16.5057 130.456 18.8026C130.456 21.1111 129.448 22.4764 127.702 22.4764ZM140.654 25.6346C142.594 25.6346 143.842 24.7908 144.48 23.5721L144.586 23.5721L144.586 25.3885L148.031 25.3885L148.031 16.5584C148.031 13.4412 145.388 12.1287 142.471 12.1287C139.336 12.1287 137.273 13.6287 136.769 16.0135L140.127 16.2889C140.373 15.4158 141.152 14.7772 142.453 14.7772C143.689 14.7772 144.398 15.3983 144.398 16.4764L144.398 16.5233C144.398 17.367 143.502 17.4783 141.228 17.701C138.638 17.9412 136.312 18.8084 136.312 21.7322C136.312 24.3221 138.158 25.6346 140.654 25.6346ZM141.697 23.1326C140.578 23.1326 139.781 22.6111 139.781 21.6151C139.781 20.5897 140.625 20.0858 141.902 19.91C142.693 19.7986 143.988 19.6111 144.422 19.3182L144.422 20.7068C144.422 22.0838 143.291 23.1326 141.697 23.1326ZM150.848 25.3885L154.481 25.3885L154.481 17.9822C154.481 16.3709 155.658 15.2635 157.258 15.2635C157.762 15.2635 158.453 15.3514 158.793 15.4568L158.793 12.2401C158.471 12.1639 158.02 12.1111 157.651 12.1111C156.186 12.1111 154.985 12.9608 154.504 14.5838L154.369 14.5838L154.369 12.2986L150.848 12.2986L150.848 25.3885Z" fill="#233348" fill-opacity="1.000000" fill-rule="evenodd"/>
	<circle id="Ellipse 7" cx="20.500000" cy="20.500000" r="20.500000" fill="#458FF6" fill-opacity="1.000000"/>
	<path id="T" d="M13.9204 10.999L19.7095 10.999L19.7095 26.6142L23.6641 26.6142L23.6641 10.999L29.4531 10.999L29.4531 7.70456L13.9204 7.70456L13.9204 10.999Z" fill="#FFFFFF" fill-opacity="1.000000" fill-rule="evenodd"/>
</svg>
